<?xml version="1.0" standalone="no"?>
<!DOCTYPE svg PUBLIC "-//W3C//DTD SVG 20010904//EN"
 "http://www.w3.org/TR/2001/REC-SVG-20010904/DTD/svg10.dtd">
<svg version="1.0" xmlns="http://www.w3.org/2000/svg"
 width="225.000000pt" height="225.000000pt" viewBox="0 0 225.000000 225.000000"
 preserveAspectRatio="xMidYMid meet">

<g transform="translate(0.000000,225.000000) scale(0.100000,-0.100000)"
fill="#000000" stroke="none">
<path d="M605 2200 c-83 -44 -192 -128 -269 -210 -294 -312 -393 -764 -255
-1174 185 -553 765 -888 1332 -771 293 61 550 227 720 467 100 141 119 212 75
278 -53 77 -84 84 -272 61 -438 -53 -870 208 -1037 626 -55 135 -71 238 -67
410 4 147 3 152 -17 156 -15 3 -13 5 8 6 22 1 27 6 27 26 0 72 -67 144 -143
152 -34 4 -54 -1 -102 -27z m74 -182 c-4 -24 -8 -99 -9 -166 -1 -302 111 -584
317 -803 191 -202 466 -334 745 -358 92 -8 275 0 319 14 20 7 20 6 6 -22 -8
-15 -36 -56 -61 -90 -332 -451 -971 -547 -1414 -213 -490 369 -545 1081 -116
1514 59 60 196 166 214 166 4 0 4 -19 -1 -42z"/>
</g>
</svg>
