<?xml version="1.0" standalone="no"?>
<!DOCTYPE svg PUBLIC "-//W3C//DTD SVG 20010904//EN"
 "http://www.w3.org/TR/2001/REC-SVG-20010904/DTD/svg10.dtd">
<svg version="1.0" xmlns="http://www.w3.org/2000/svg"
 width="980.000000pt" height="982.000000pt" viewBox="0 0 980.000000 982.000000"
 preserveAspectRatio="xMidYMid meet">

<g transform="translate(0.000000,982.000000) scale(0.100000,-0.100000)"
fill="#000000" stroke="none">
<path d="M4819 9787 c-27 -15 -52 -38 -66 -63 l-23 -39 0 -603 c0 -665 -3
-631 64 -690 80 -70 202 -46 255 49 21 36 21 50 21 640 l0 604 -23 40 c-26 47
-92 85 -148 85 -20 0 -56 -10 -80 -23z"/>
<path d="M2481 9168 c-84 -28 -137 -133 -108 -214 11 -33 393 -702 548 -959
54 -92 99 -125 168 -125 111 0 195 99 172 202 -8 35 -537 966 -588 1036 -42
57 -124 82 -192 60z"/>
<path d="M7206 9166 c-22 -8 -50 -25 -62 -38 -36 -36 -601 -1024 -606 -1060
-15 -101 53 -187 155 -196 54 -4 118 18 144 50 27 34 578 998 591 1033 45 129
-91 259 -222 211z"/>
<path d="M4620 7829 c-1200 -114 -2227 -975 -2546 -2138 -73 -267 -104 -499
-104 -785 1 -786 301 -1509 859 -2067 452 -452 1003 -730 1644 -831 122 -19
181 -22 427 -22 246 0 305 3 427 22 844 133 1554 589 2027 1301 80 120 203
354 259 491 237 579 282 1233 126 1838 -308 1198 -1342 2078 -2574 2192 -126
11 -420 11 -545 -1z m609 -704 c887 -136 1612 -785 1835 -1645 57 -221 70
-327 70 -570 0 -243 -13 -349 -70 -568 -101 -388 -293 -723 -583 -1013 -347
-346 -760 -555 -1256 -636 -154 -24 -497 -24 -650 1 -390 63 -716 200 -1019
427 -403 304 -694 736 -820 1219 -57 221 -70 327 -70 570 0 243 13 349 70 570
188 723 739 1312 1451 1549 158 53 348 95 498 111 123 12 417 4 544 -15z"/>
<path d="M753 7439 c-47 -14 -98 -69 -112 -121 -16 -56 -2 -116 37 -158 29
-31 983 -586 1044 -607 100 -34 207 41 216 152 6 75 -23 124 -103 174 -33 20
-265 155 -515 299 -471 271 -497 282 -567 261z"/>
<path d="M8955 7441 c-25 -6 -702 -391 -970 -552 -102 -60 -130 -103 -123
-185 7 -84 64 -145 150 -159 37 -7 51 -2 127 37 188 98 958 550 983 578 110
120 -8 320 -167 281z"/>
<path d="M86 5057 c-47 -26 -86 -93 -86 -147 0 -54 39 -121 86 -147 l39 -23
605 0 c595 0 606 0 639 21 46 28 69 56 82 103 15 54 2 111 -34 152 -58 67 -25
64 -689 64 l-603 0 -39 -23z"/>
<path d="M8435 5061 c-74 -45 -107 -121 -86 -197 13 -47 36 -75 82 -103 33
-21 44 -21 639 -21 l605 0 39 23 c46 26 86 93 86 145 0 56 -36 119 -84 147
l-43 25 -604 0 c-571 0 -606 -1 -634 -19z"/>
<path d="M1733 3270 c-45 -10 -1023 -576 -1055 -610 -100 -107 -21 -283 126
-285 57 0 11 -24 521 270 576 332 567 326 593 370 18 32 22 51 19 97 -6 108
-100 181 -204 158z"/>
<path d="M7940 3248 c-51 -35 -73 -71 -78 -131 -7 -85 19 -124 120 -185 287
-172 948 -547 978 -554 117 -30 232 92 200 211 -21 78 14 56 -950 609 -114 66
-130 72 -181 72 -42 0 -65 -6 -89 -22z"/>
<path d="M3012 1929 c-49 -25 -32 2 -407 -649 -231 -399 -239 -416 -239 -466
3 -152 184 -228 289 -121 34 36 581 979 602 1039 23 66 -5 143 -70 192 -40 30
-122 32 -175 5z"/>
<path d="M6635 1934 c-67 -35 -97 -83 -97 -154 0 -26 8 -62 17 -81 76 -147
572 -990 595 -1011 35 -32 100 -52 143 -43 104 22 167 126 135 220 -12 34
-487 865 -569 996 -50 80 -149 112 -224 73z"/>
<path d="M4846 1460 c-34 -11 -82 -54 -102 -92 -12 -22 -14 -130 -14 -630 l0
-603 23 -39 c26 -47 93 -86 146 -86 56 0 122 38 148 85 l23 40 0 603 c0 656 2
628 -57 685 -45 42 -105 55 -167 37z"/>
</g>
</svg>
