<?xml version="1.0" standalone="no"?>
<!DOCTYPE svg PUBLIC "-//W3C//DTD SVG 20010904//EN"
 "http://www.w3.org/TR/2001/REC-SVG-20010904/DTD/svg10.dtd">
<svg version="1.0" xmlns="http://www.w3.org/2000/svg"
 width="225.000000pt" height="225.000000pt" viewBox="0 0 225.000000 225.000000"
 preserveAspectRatio="xMidYMid meet">

<g transform="translate(0.000000,225.000000) scale(0.100000,-0.100000)"
fill="#000000" stroke="none">
<path d="M383 1952 c-90 -32 -149 -89 -178 -173 -23 -64 -22 -1244 1 -1311 21
-64 75 -122 142 -155 l57 -28 395 0 c441 0 429 -2 510 72 24 21 54 61 66 88
22 45 24 64 24 198 0 144 -1 149 -25 172 -37 38 -95 35 -129 -6 -25 -29 -26
-36 -26 -156 0 -124 0 -125 -29 -154 l-29 -29 -362 0 c-240 0 -368 4 -382 11
-47 25 -48 41 -48 644 0 603 1 619 48 644 14 7 142 11 382 11 l362 0 29 -29
c29 -29 29 -30 29 -154 0 -120 1 -127 26 -156 34 -41 92 -44 129 -6 24 23 25
28 25 172 0 134 -2 153 -24 198 -12 28 -42 67 -66 88 -80 73 -71 72 -495 74
-345 3 -385 1 -432 -15z"/>
<path d="M1630 1473 c-25 -23 -32 -36 -32 -67 0 -34 8 -46 73 -112 l73 -74
-557 0 -557 0 -32 -29 c-45 -40 -45 -92 0 -132 l32 -29 557 0 557 0 -73 -74
c-65 -66 -73 -78 -73 -112 0 -31 7 -44 32 -67 28 -25 39 -28 69 -23 30 5 62
32 199 169 154 155 162 165 162 202 0 37 -8 47 -162 202 -137 137 -169 164
-199 169 -30 5 -41 2 -69 -23z"/>
</g>
</svg>
