<?xml version="1.0" standalone="no"?>
<!DOCTYPE svg PUBLIC "-//W3C//DTD SVG 20010904//EN"
 "http://www.w3.org/TR/2001/REC-SVG-20010904/DTD/svg10.dtd">
<svg version="1.0" xmlns="http://www.w3.org/2000/svg"
 width="840.000000pt" height="859.000000pt" viewBox="0 0 840.000000 859.000000"
 preserveAspectRatio="xMidYMid meet">

<g transform="translate(0.000000,859.000000) scale(0.100000,-0.100000)"
fill="#000000" stroke="none">
<path d="M3965 8439 c-184 -12 -432 -42 -495 -59 -19 -6 -49 -10 -67 -10 -17
0 -35 -4 -38 -10 -3 -5 -18 -10 -31 -10 -27 0 -144 -27 -179 -41 -11 -4 -31
-10 -45 -13 -92 -20 -130 -31 -130 -38 0 -4 -13 -8 -29 -8 -17 0 -32 -4 -35
-9 -4 -5 -24 -12 -46 -16 -22 -4 -40 -11 -40 -16 0 -5 -9 -9 -19 -9 -11 0 -48
-12 -83 -26 -35 -15 -79 -33 -98 -41 -19 -8 -43 -18 -52 -23 -10 -6 -25 -10
-33 -10 -8 0 -15 -4 -15 -10 0 -5 -8 -10 -18 -10 -10 0 -27 -7 -38 -15 -10 -8
-27 -15 -36 -15 -10 0 -18 -3 -18 -7 0 -5 -21 -17 -48 -27 -26 -11 -49 -22
-52 -25 -3 -3 -32 -19 -65 -36 -33 -16 -62 -32 -65 -35 -3 -3 -23 -14 -45 -25
-22 -11 -42 -22 -45 -25 -3 -3 -22 -14 -42 -25 -21 -11 -38 -22 -38 -26 0 -4
-8 -9 -17 -13 -19 -6 -54 -27 -63 -37 -3 -3 -20 -14 -37 -24 -18 -11 -33 -23
-33 -27 0 -4 -6 -8 -13 -8 -7 0 -24 -11 -39 -25 -15 -14 -32 -25 -38 -25 -5 0
-10 -4 -10 -9 0 -5 -8 -12 -17 -15 -10 -3 -31 -17 -47 -31 -16 -14 -32 -25
-35 -25 -4 0 -25 -17 -48 -37 -40 -38 -102 -90 -152 -128 -31 -24 -358 -352
-385 -386 -11 -13 -33 -40 -50 -60 -33 -38 -42 -49 -96 -119 -19 -24 -43 -53
-53 -64 -9 -11 -17 -23 -17 -27 0 -4 -6 -14 -13 -21 -26 -28 -67 -87 -67 -97
0 -6 -4 -11 -8 -11 -5 0 -17 -16 -28 -35 -10 -19 -21 -35 -25 -35 -4 0 -9 -8
-13 -17 -7 -22 -25 -50 -49 -77 -10 -11 -20 -31 -23 -43 -4 -13 -10 -23 -15
-23 -5 0 -9 -9 -9 -20 0 -11 -4 -20 -10 -20 -5 0 -12 -11 -16 -25 -3 -14 -10
-25 -15 -25 -5 0 -9 -7 -9 -15 0 -8 -4 -15 -8 -15 -4 0 -16 -22 -27 -50 -11
-27 -22 -50 -25 -50 -3 0 -14 -22 -25 -50 -11 -27 -23 -50 -27 -50 -4 0 -8 -8
-8 -17 0 -10 -7 -27 -15 -37 -8 -11 -15 -28 -15 -38 0 -10 -4 -18 -10 -18 -5
0 -10 -7 -10 -15 0 -8 -4 -23 -10 -33 -5 -9 -15 -33 -23 -52 -8 -19 -26 -63
-41 -98 -14 -35 -26 -72 -26 -83 0 -10 -4 -19 -9 -19 -5 0 -12 -18 -16 -40 -4
-22 -11 -42 -16 -46 -5 -3 -9 -16 -9 -30 0 -13 -4 -32 -9 -42 -13 -24 -41
-117 -41 -137 0 -8 -4 -23 -9 -33 -12 -23 -41 -152 -41 -179 0 -12 -5 -25 -10
-28 -6 -3 -10 -21 -10 -38 0 -18 -4 -48 -10 -67 -21 -75 -45 -291 -60 -543 -9
-140 -9 -235 0 -380 15 -257 41 -504 60 -561 6 -16 10 -43 10 -60 0 -18 4 -36
9 -41 5 -6 11 -28 13 -50 5 -42 25 -126 39 -160 4 -11 10 -31 13 -45 13 -64
32 -129 39 -136 4 -4 7 -18 7 -30 0 -13 4 -25 9 -28 5 -4 12 -24 16 -46 4 -22
11 -42 16 -46 5 -3 9 -14 9 -25 0 -10 4 -27 10 -37 8 -15 25 -55 52 -122 15
-38 33 -79 62 -143 14 -32 26 -62 26 -67 0 -6 5 -10 10 -10 6 0 10 -6 10 -14
0 -17 32 -80 43 -84 4 -2 7 -10 7 -17 0 -13 29 -74 40 -85 9 -9 51 -85 57
-102 3 -10 9 -18 14 -18 5 0 9 -5 9 -12 0 -13 100 -172 112 -176 4 -2 8 -10 8
-17 0 -8 6 -20 12 -27 26 -27 68 -87 68 -96 0 -6 3 -12 8 -14 4 -2 23 -23 42
-48 19 -25 37 -47 40 -50 3 -3 19 -23 35 -45 38 -52 62 -80 105 -125 19 -20
47 -52 61 -71 31 -40 271 -278 314 -311 17 -13 40 -32 51 -44 12 -11 44 -38
70 -60 27 -21 51 -42 52 -46 2 -5 10 -8 18 -8 8 0 14 -4 14 -8 0 -5 21 -24 48
-42 26 -19 48 -38 50 -42 2 -4 8 -8 14 -8 5 0 16 -6 23 -13 33 -29 45 -37 55
-37 5 0 10 -4 10 -8 0 -5 16 -17 35 -28 19 -10 35 -22 35 -25 0 -4 11 -10 25
-13 14 -4 25 -11 25 -16 0 -6 6 -10 14 -10 8 0 16 -4 18 -8 4 -12 186 -117
313 -181 39 -20 72 -39 73 -43 2 -5 10 -8 19 -8 8 0 27 -6 41 -14 28 -15 95
-45 225 -100 17 -7 68 -26 112 -41 44 -15 89 -30 100 -35 11 -5 38 -14 60 -21
22 -6 58 -17 80 -24 56 -17 109 -32 185 -50 36 -9 81 -20 100 -25 45 -11 138
-29 209 -42 54 -9 98 -14 306 -38 135 -15 644 -15 775 -1 190 22 358 47 445
67 39 9 88 19 110 24 96 21 141 32 160 39 35 15 131 41 148 41 10 0 17 5 17
10 0 6 11 10 24 10 14 0 27 4 31 9 3 6 26 13 50 17 25 3 45 10 45 15 0 5 11 9
25 9 14 0 25 5 25 10 0 6 7 10 16 10 9 0 32 7 52 16 21 9 48 20 62 26 14 5 38
16 53 24 16 8 35 14 43 14 8 0 14 5 14 10 0 6 6 10 13 10 11 0 276 129 287
140 4 4 38 23 95 54 11 6 22 14 25 17 3 4 15 9 28 13 12 4 22 12 22 17 0 5 6
9 14 9 8 0 16 3 18 8 4 9 85 62 95 62 5 0 19 10 33 23 14 13 40 32 58 42 17
11 32 23 32 27 0 4 6 8 13 8 7 0 24 11 39 25 15 14 31 25 37 25 5 0 11 3 13 8
2 4 24 24 50 45 26 21 53 43 60 50 7 7 27 23 43 35 104 80 365 339 465 462 25
30 50 60 57 68 7 7 29 34 50 60 21 26 41 48 45 50 5 2 8 8 8 13 0 6 11 22 25
37 14 15 25 30 25 35 0 4 11 20 25 35 14 15 25 30 25 35 0 4 11 20 25 35 14
15 25 30 25 35 0 10 53 91 62 95 5 2 8 10 8 18 0 8 4 14 9 14 5 0 13 10 17 23
4 12 9 24 13 27 5 4 22 33 55 95 6 11 13 22 16 25 11 11 40 72 40 85 0 7 4 15
9 17 9 4 91 171 91 187 0 6 5 11 10 11 6 0 10 7 10 15 0 8 12 40 26 72 48 106
54 121 54 137 0 9 5 16 10 16 6 0 10 11 10 24 0 14 4 27 9 30 5 4 12 24 16 46
4 22 11 42 16 46 5 3 9 16 9 30 0 13 5 24 10 24 6 0 10 7 10 17 0 14 23 103
38 143 10 28 33 125 39 163 3 20 9 40 14 43 5 3 9 22 9 43 0 21 4 51 10 67 16
47 35 176 60 399 14 129 14 651 0 780 -17 152 -29 247 -35 280 -3 17 -13 71
-21 120 -9 50 -20 98 -25 107 -5 10 -9 26 -9 36 0 17 -25 120 -51 207 -4 17
-14 51 -21 77 -8 26 -17 50 -21 54 -4 4 -7 16 -7 26 0 10 -4 26 -9 36 -5 9
-17 40 -26 67 -9 28 -23 64 -31 82 -8 17 -14 36 -14 42 0 6 -4 19 -9 29 -5 9
-19 40 -31 67 -12 28 -29 66 -37 85 -24 55 -117 244 -123 250 -3 3 -14 23 -25
45 -11 22 -41 75 -67 117 -27 43 -48 82 -48 88 0 5 -4 10 -10 10 -5 0 -10 7
-10 15 0 8 -4 15 -10 15 -5 0 -12 11 -16 25 -3 14 -9 25 -14 25 -4 0 -15 16
-26 35 -10 19 -22 35 -26 35 -5 0 -8 5 -8 11 0 6 -6 17 -12 24 -27 30 -38 44
-38 50 0 3 -11 18 -25 33 -14 15 -25 30 -25 35 0 4 -11 18 -25 31 -14 13 -25
26 -25 30 0 4 -6 13 -12 20 -7 7 -29 32 -48 56 -19 24 -46 55 -60 70 -14 15
-48 54 -77 87 -60 69 -234 241 -278 275 -16 13 -44 37 -60 53 -17 17 -51 46
-75 65 -25 19 -46 38 -48 42 -2 4 -8 8 -13 8 -5 0 -26 16 -46 35 -20 19 -41
35 -46 35 -4 0 -20 11 -35 25 -15 14 -30 25 -35 25 -4 0 -18 9 -29 20 -41 38
-353 229 -478 292 -69 35 -126 66 -128 71 -2 4 -10 7 -18 7 -8 0 -22 4 -32 10
-9 5 -44 21 -77 35 -33 15 -73 33 -90 40 -16 7 -64 25 -105 40 -41 14 -82 30
-91 35 -9 5 -33 12 -53 15 -20 4 -39 11 -42 16 -3 5 -14 9 -25 9 -10 0 -27 4
-37 9 -27 14 -126 41 -150 41 -12 0 -22 5 -22 10 0 6 -13 10 -28 10 -16 0 -51
7 -78 15 -27 8 -61 15 -76 15 -15 0 -29 4 -32 9 -3 4 -27 11 -53 14 -27 3 -93
13 -148 22 -55 9 -143 20 -195 25 -52 4 -113 11 -135 14 -71 10 -427 13 -550
5z m585 -370 c240 -27 311 -38 430 -64 41 -9 93 -20 115 -25 22 -4 58 -13 80
-19 22 -6 58 -16 80 -23 43 -11 117 -35 150 -48 11 -4 45 -15 75 -24 56 -18
92 -32 122 -47 10 -5 22 -9 27 -9 22 0 427 -196 449 -217 7 -7 20 -13 28 -13
8 0 14 -4 14 -10 0 -5 7 -10 15 -10 8 0 15 -4 15 -10 0 -5 6 -10 13 -10 6 0
57 -29 111 -65 55 -36 102 -65 105 -65 4 0 13 -9 21 -20 8 -11 19 -20 25 -20
10 0 29 -13 105 -75 20 -16 55 -45 78 -63 65 -53 82 -68 161 -140 71 -64 211
-201 211 -206 0 -1 23 -27 51 -57 28 -30 63 -70 77 -89 15 -19 34 -42 42 -50
9 -8 31 -35 50 -60 19 -25 38 -46 42 -48 5 -2 8 -8 8 -13 0 -9 8 -21 38 -54 6
-7 12 -18 12 -24 0 -6 3 -11 8 -11 4 0 16 -16 26 -35 11 -19 22 -35 26 -35 4
0 10 -8 14 -17 5 -18 26 -53 36 -63 10 -9 60 -90 60 -95 0 -3 15 -30 34 -58
18 -29 41 -71 52 -92 10 -22 21 -42 24 -45 4 -3 15 -26 26 -52 10 -27 22 -48
27 -48 4 0 7 -5 7 -11 0 -11 5 -23 57 -139 35 -77 39 -89 59 -145 9 -27 21
-54 26 -59 4 -6 8 -20 8 -32 0 -13 4 -25 9 -28 5 -4 12 -24 16 -46 4 -22 11
-42 16 -46 5 -3 9 -18 9 -33 0 -15 3 -31 7 -35 7 -7 26 -72 39 -136 3 -14 9
-34 14 -45 12 -32 34 -150 59 -318 6 -37 13 -71 15 -76 11 -16 30 -351 30
-506 0 -157 -20 -480 -30 -496 -3 -5 -9 -39 -14 -77 -19 -136 -30 -191 -70
-352 -5 -19 -15 -58 -22 -87 -7 -28 -16 -55 -21 -59 -4 -4 -7 -20 -7 -35 0
-15 -4 -30 -9 -33 -5 -4 -12 -24 -16 -46 -4 -22 -11 -42 -16 -46 -5 -3 -9 -16
-9 -29 0 -13 -4 -26 -9 -29 -5 -3 -12 -22 -15 -41 -4 -19 -11 -35 -16 -35 -6
0 -10 -11 -10 -25 0 -14 -4 -25 -10 -25 -5 0 -10 -10 -10 -23 0 -13 -7 -32
-15 -43 -8 -10 -15 -27 -15 -36 0 -10 -4 -18 -10 -18 -5 0 -10 -7 -10 -15 0
-8 -4 -23 -10 -33 -5 -9 -17 -35 -26 -57 -10 -22 -28 -57 -41 -77 -13 -21 -23
-44 -23 -53 0 -8 -4 -15 -10 -15 -5 0 -12 -11 -16 -25 -3 -14 -9 -25 -13 -25
-4 0 -15 -20 -25 -45 -11 -25 -23 -45 -28 -45 -4 0 -8 -7 -8 -15 0 -8 -4 -15
-9 -15 -5 0 -12 -11 -15 -25 -4 -14 -11 -25 -16 -25 -6 0 -10 -7 -10 -15 0 -8
-4 -15 -10 -15 -5 0 -10 -5 -10 -11 0 -14 -98 -161 -140 -209 -16 -19 -30 -38
-30 -42 0 -4 -10 -17 -23 -30 -12 -13 -30 -34 -40 -48 -79 -117 -464 -501
-577 -577 -14 -9 -32 -24 -40 -33 -8 -8 -28 -24 -45 -34 -16 -11 -34 -23 -40
-28 -77 -64 -218 -158 -235 -158 -6 0 -10 -4 -10 -10 0 -5 -11 -12 -25 -16
-14 -3 -25 -10 -25 -14 0 -4 -8 -10 -17 -14 -10 -3 -36 -17 -58 -31 -22 -14
-52 -30 -67 -36 -16 -6 -28 -15 -28 -20 0 -5 -6 -9 -14 -9 -17 0 -80 -32 -84
-42 -2 -5 -8 -8 -13 -8 -5 0 -32 -11 -61 -25 -28 -14 -58 -25 -65 -25 -7 0
-13 -4 -13 -10 0 -5 -8 -10 -17 -10 -10 0 -27 -7 -37 -15 -11 -8 -30 -15 -43
-15 -13 0 -23 -4 -23 -10 0 -5 -11 -10 -25 -10 -14 0 -25 -4 -25 -10 0 -5 -16
-12 -35 -16 -19 -3 -38 -10 -41 -15 -3 -5 -16 -9 -29 -9 -13 0 -26 -4 -29 -9
-4 -5 -24 -12 -46 -16 -22 -4 -42 -11 -46 -16 -3 -5 -18 -9 -34 -9 -16 0 -31
-4 -34 -9 -3 -4 -25 -11 -48 -15 -23 -4 -47 -11 -53 -15 -5 -5 -26 -11 -45
-14 -19 -3 -66 -13 -105 -22 -218 -54 -562 -89 -845 -88 -182 1 -429 15 -480
29 -14 3 -52 10 -85 15 -159 25 -271 47 -300 59 -11 5 -33 11 -50 14 -52 8
-133 31 -141 39 -4 4 -17 7 -28 7 -23 1 -122 33 -133 44 -3 3 -16 6 -28 6 -11
0 -25 4 -30 8 -6 5 -32 17 -60 26 -50 18 -64 23 -160 66 -27 12 -64 29 -82 36
-17 8 -36 14 -42 14 -6 0 -11 3 -11 8 0 4 -21 16 -48 26 -26 11 -49 22 -52 26
-3 3 -23 14 -45 24 -21 11 -63 34 -92 52 -28 19 -55 34 -58 34 -5 0 -86 50
-95 60 -10 10 -45 31 -62 36 -10 4 -18 10 -18 14 0 4 -16 15 -35 26 -19 10
-35 22 -35 26 0 5 -5 8 -10 8 -10 0 -22 8 -55 37 -7 7 -16 13 -20 13 -3 0 -23
16 -43 35 -20 19 -40 35 -43 35 -4 0 -21 12 -37 28 -17 15 -50 43 -73 62 -24
19 -60 52 -81 73 -21 20 -40 37 -42 37 -11 0 -235 235 -296 310 -19 24 -40 48
-45 54 -6 6 -24 29 -40 51 -17 22 -32 42 -35 45 -19 18 -70 90 -70 99 0 6 -4
11 -8 11 -4 0 -16 15 -27 33 -10 17 -21 34 -25 37 -13 10 -110 167 -110 178 0
7 -4 12 -10 12 -5 0 -10 7 -10 15 0 8 -4 15 -10 15 -5 0 -10 6 -10 14 0 8 -6
21 -13 28 -28 29 -217 429 -217 459 0 10 -4 19 -9 19 -5 0 -11 10 -14 23 -3
12 -24 76 -47 142 -23 66 -46 134 -51 150 -43 160 -42 156 -74 310 -10 44 -19
100 -22 125 -3 25 -9 49 -14 55 -5 5 -9 34 -9 65 0 30 -7 102 -15 160 -32 232
-15 708 34 995 25 145 33 182 42 197 5 10 9 28 10 40 0 29 33 155 42 164 4 4
7 18 7 31 0 13 4 31 9 41 13 28 41 118 41 136 0 9 5 16 10 16 6 0 10 6 10 14
0 14 57 167 92 246 30 68 141 294 148 300 3 3 18 30 34 60 16 30 32 57 35 60
3 3 15 21 25 40 11 19 22 37 25 40 10 9 31 44 37 63 4 9 9 17 13 17 4 0 15 16
25 35 11 19 23 35 28 35 4 0 8 6 8 13 0 7 11 24 25 39 14 15 25 30 25 33 0 4
6 12 12 20 7 7 22 25 33 41 102 142 450 514 481 514 4 0 21 15 38 33 31 32
117 103 170 142 16 11 34 26 41 33 8 6 16 12 20 12 3 0 18 11 33 25 15 14 32
25 39 25 6 0 13 4 15 8 4 10 128 92 138 92 5 0 10 4 12 9 3 11 174 111 188
111 4 0 10 3 12 8 3 7 204 109 298 150 79 35 232 92 246 92 8 0 14 5 14 10 0
6 7 10 16 10 18 0 108 28 136 41 10 5 28 9 41 9 13 0 27 3 31 7 10 10 136 42
169 42 15 1 27 5 27 9 0 4 37 14 83 21 45 7 105 17 132 23 62 11 176 25 275
34 41 3 77 8 79 10 9 8 530 2 611 -7z"/>
<path d="M2613 5532 c-28 -10 -55 -20 -59 -24 -4 -5 -16 -8 -26 -8 -10 0 -18
-4 -18 -10 0 -5 -6 -10 -13 -10 -38 0 -173 -138 -211 -216 -37 -75 -43 -91
-52 -134 -9 -47 -10 -186 0 -235 8 -45 84 -205 97 -205 5 0 9 -4 9 -10 0 -10
76 -90 86 -90 3 0 12 -6 19 -12 34 -31 49 -39 125 -71 53 -23 87 -29 180 -34
80 -4 110 0 195 30 50 17 99 41 113 54 7 7 17 13 21 13 26 0 171 175 171 207
0 7 4 13 8 13 5 0 16 32 26 70 15 55 18 96 14 190 -2 74 -9 125 -16 132 -7 7
-12 20 -12 30 0 10 -4 18 -10 18 -5 0 -10 7 -10 15 0 37 -139 205 -169 205 -6
0 -11 3 -11 8 0 10 -58 42 -76 42 -8 0 -14 5 -14 10 0 6 -8 10 -19 10 -10 0
-35 7 -54 15 -50 21 -224 19 -294 -3z"/>
<path d="M5540 5540 c-8 -5 -23 -10 -33 -10 -67 0 -224 -111 -292 -205 -87
-121 -122 -300 -86 -440 14 -54 60 -158 73 -163 4 -2 8 -9 8 -15 0 -17 133
-142 169 -158 17 -8 31 -17 31 -21 0 -4 16 -10 35 -14 19 -3 35 -10 35 -15 0
-5 15 -9 33 -9 18 0 38 -5 44 -11 6 -6 45 -9 104 -6 101 5 136 11 186 33 17 8
36 14 42 14 6 0 11 5 11 10 0 6 8 10 18 10 20 0 130 90 164 135 12 17 25 32
28 35 9 8 40 77 40 89 0 6 4 11 9 11 9 0 11 9 31 115 13 65 6 213 -10 229 -6
6 -10 18 -10 28 0 10 -6 28 -12 41 -31 56 -74 124 -90 141 -10 11 -18 23 -18
28 0 4 -5 8 -11 8 -6 0 -19 11 -30 24 -10 13 -44 36 -76 52 -32 16 -60 31 -63
34 -3 3 -30 13 -61 23 -62 19 -243 24 -269 7z"/>
<path d="M3875 3544 c-44 -7 -97 -13 -117 -13 -20 -1 -40 -5 -43 -11 -3 -5
-17 -10 -30 -10 -54 0 -348 -84 -443 -126 -29 -13 -61 -24 -72 -24 -11 0 -20
-4 -20 -10 0 -5 -5 -10 -10 -10 -6 0 -33 -11 -62 -25 -28 -14 -58 -25 -65 -25
-7 0 -13 -4 -13 -10 0 -5 -5 -10 -11 -10 -16 0 -82 -32 -97 -47 -7 -7 -20 -13
-28 -13 -8 0 -14 -4 -14 -10 0 -5 -9 -10 -20 -10 -11 0 -20 -4 -20 -9 0 -5
-11 -12 -25 -15 -14 -4 -25 -11 -25 -16 0 -6 -7 -10 -15 -10 -8 0 -15 -4 -15
-9 0 -5 -11 -12 -25 -15 -14 -4 -25 -11 -25 -16 0 -6 -4 -10 -10 -10 -12 0
-154 -100 -158 -112 -2 -4 -9 -8 -15 -8 -7 0 -24 -11 -39 -25 -15 -14 -30 -25
-34 -25 -4 0 -16 -10 -28 -23 -11 -12 -39 -36 -61 -52 -74 -55 -115 -125 -115
-195 0 -28 5 -50 10 -50 6 0 10 -9 10 -19 0 -21 63 -81 85 -81 8 0 15 -4 15
-10 0 -5 25 -10 55 -10 61 0 113 26 170 84 17 17 48 44 70 60 22 17 42 32 45
36 13 14 120 90 128 90 4 0 17 8 28 18 10 10 35 27 54 38 19 10 41 25 48 32 7
6 20 12 28 12 8 0 14 4 14 8 0 4 20 16 45 26 25 11 45 23 45 28 0 4 4 8 10 8
5 0 53 21 107 46 122 57 145 67 208 89 28 9 59 20 70 24 53 21 122 41 142 41
12 0 24 4 27 9 3 5 23 11 43 14 21 3 74 13 118 22 44 9 130 20 190 25 61 4
128 11 150 15 49 7 368 -19 490 -40 145 -26 150 -27 160 -35 6 -4 30 -11 55
-15 25 -4 50 -11 55 -14 6 -4 37 -15 70 -25 33 -9 68 -21 77 -27 10 -5 25 -9
33 -9 8 0 15 -3 15 -8 0 -7 51 -27 98 -39 12 -3 22 -9 22 -14 0 -5 6 -9 14 -9
17 0 80 -32 84 -42 2 -5 11 -8 21 -8 9 0 21 -4 26 -9 6 -5 37 -23 70 -41 95
-52 98 -54 119 -72 11 -10 28 -20 38 -24 10 -3 18 -10 18 -15 0 -5 5 -9 11 -9
10 0 69 -41 97 -67 7 -7 17 -13 21 -13 4 0 24 -16 44 -35 20 -19 39 -35 42
-35 4 0 28 -21 55 -46 27 -26 61 -53 76 -60 30 -16 134 -19 134 -4 0 6 8 10
17 10 26 0 91 76 99 116 3 19 3 55 -1 81 -6 42 -15 55 -93 130 -47 46 -89 83
-93 83 -4 0 -21 14 -37 30 -17 17 -35 30 -41 30 -6 0 -11 4 -11 9 0 5 -8 12
-18 15 -10 4 -27 14 -38 24 -28 26 -207 138 -232 146 -12 4 -22 12 -22 17 0 5
-7 9 -15 9 -8 0 -15 4 -15 8 0 4 -22 16 -50 27 -27 11 -50 22 -50 25 0 3 -22
14 -50 25 -27 11 -50 23 -50 27 0 4 -7 8 -16 8 -9 0 -28 6 -42 14 -15 7 -38
18 -52 24 -14 5 -41 17 -62 26 -20 9 -42 16 -50 16 -8 0 -18 4 -23 8 -6 5 -37
17 -70 27 -33 11 -64 23 -70 27 -5 4 -21 8 -36 8 -15 0 -30 4 -33 9 -3 5 -33
12 -66 16 -33 4 -63 11 -66 16 -3 5 -24 9 -48 9 -23 0 -46 4 -52 9 -34 33
-656 52 -819 25z"/>
</g>
</svg>
