<?xml version="1.0" standalone="no"?>
<!DOCTYPE svg PUBLIC "-//W3C//DTD SVG 20010904//EN"
 "http://www.w3.org/TR/2001/REC-SVG-20010904/DTD/svg10.dtd">
<svg version="1.0" xmlns="http://www.w3.org/2000/svg"
 width="512.000000pt" height="512.000000pt" viewBox="0 0 512.000000 512.000000"
 preserveAspectRatio="xMidYMid meet">

<g transform="translate(0.000000,512.000000) scale(0.100000,-0.100000)"
fill="#000000" stroke="none">
<path d="M2375 4790 c-336 -53 -643 -237 -843 -505 -65 -88 -152 -256 -186
-360 -101 -313 -82 -653 55 -944 78 -167 227 -357 360 -458 27 -20 49 -40 49
-43 0 -4 -19 -12 -42 -19 -147 -43 -366 -149 -518 -250 -173 -115 -382 -311
-506 -476 -264 -351 -413 -772 -418 -1177 -1 -149 4 -165 68 -212 l27 -21
2139 0 2139 0 27 21 c64 47 69 64 68 207 -3 354 -131 760 -336 1066 -88 130
-138 192 -258 314 -227 234 -500 409 -794 509 -53 18 -96 36 -96 39 0 4 18 19
40 34 65 45 212 204 273 296 152 229 225 490 214 759 -9 203 -51 360 -143 540
-176 341 -487 579 -871 665 -82 19 -363 28 -448 15z m416 -339 c175 -45 317
-127 445 -255 130 -129 209 -269 256 -449 32 -121 32 -339 0 -457 -50 -185
-123 -310 -257 -445 -177 -177 -375 -266 -621 -282 -405 -25 -793 221 -943
598 -53 133 -65 199 -65 359 0 201 31 319 133 494 50 87 192 240 272 294 108
73 254 133 384 158 96 19 296 11 396 -15z m219 -2234 c210 -42 356 -92 529
-183 376 -195 670 -528 826 -934 48 -124 105 -361 105 -437 l0 -23 -1911 0
-1912 0 7 58 c36 310 181 646 387 898 137 168 345 337 540 438 215 112 380
162 664 200 17 2 179 3 360 1 241 -3 350 -7 405 -18z"/>
</g>
</svg>
